HIERARCHY
ROOT Hips
{
 OFFSET 0.000000 0.000000 0.000000
 CHANNELS 6 Xposition Yposition Zposition Yrotation Xrotation Zrotation
 JOINT Chest
 {
  OFFSET 0.000000 9.585900 0.002600
  CHANNELS 3 Yrotation Xrotation Zrotation
  JOINT Chest2
  {
   OFFSET 0.000000 9.601200 -0.005300
   CHANNELS 3 Yrotation Xrotation Zrotation
   JOINT Chest3
   {
    OFFSET 0.000000 9.561800 0.000000
    CHANNELS 3 Yrotation Xrotation Zrotation
    JOINT Chest4
    {
     OFFSET 0.000000 9.552100 0.000000
     CHANNELS 3 Yrotation Xrotation Zrotation
     JOINT Neck
     {
      OFFSET 0.000000 14.453000 0.000000
      CHANNELS 3 Yrotation Xrotation Zrotation
      JOINT Head
      {
       OFFSET 0.000000 8.936500 -0.011300
       CHANNELS 3 Yrotation Xrotation Zrotation
       End Site
       {
        OFFSET 0.000000 17.073600 -0.006000
       }
      }
     }
     JOINT RightCollar
     {
      OFFSET -2.921100 9.558500 0.000000
      CHANNELS 3 Yrotation Xrotation Zrotation
      JOINT RightShoulder
      {
       OFFSET -13.519700 0.000000 0.000000
       CHANNELS 3 Yrotation Xrotation Zrotation
       JOINT RightElbow
       {
        OFFSET 0.000000 -29.696600 0.000000
        CHANNELS 3 Yrotation Xrotation Zrotation
        JOINT RightWrist
        {
         OFFSET 0.000000 -24.004700 0.000000
         CHANNELS 3 Yrotation Xrotation Zrotation
         End Site
         {
          OFFSET 0.000000 -17.728500 0.000000
         }
        }
       }
      }
     }
     JOINT LeftCollar
     {
      OFFSET 2.921100 9.558500 0.000000
      CHANNELS 3 Yrotation Xrotation Zrotation
      JOINT LeftShoulder
      {
       OFFSET 13.519700 0.000000 0.000000
       CHANNELS 3 Yrotation Xrotation Zrotation
       JOINT LeftElbow
       {
        OFFSET 0.000000 -29.696600 0.000000
        CHANNELS 3 Yrotation Xrotation Zrotation
        JOINT LeftWrist
        {
         OFFSET 0.000000 -24.004700 0.000000
         CHANNELS 3 Yrotation Xrotation Zrotation
         End Site
         {
          OFFSET 0.000000 -17.728500 0.000000
         }
        }
       }
      }
     }
    }
   }
  }
 }
 JOINT RightHip
 {
  OFFSET -7.771700 -0.012900 -0.001300
  CHANNELS 3 Yrotation Xrotation Zrotation
  JOINT RightKnee
  {
   OFFSET 0.000000 -40.869800 0.001200
   CHANNELS 3 Yrotation Xrotation Zrotation
   JOINT RightAnkle
   {
    OFFSET 0.000000 -39.717900 0.002100
    CHANNELS 3 Yrotation Xrotation Zrotation
    JOINT RightToe
    {
     OFFSET 0.000000 -4.965400 11.033500
     CHANNELS 3 Yrotation Xrotation Zrotation
     End Site
     {
      OFFSET 0.000000 -1.423100 5.872300
     }
    }
   }
  }
 }
 JOINT LeftHip
 {
  OFFSET 7.771700 -0.012900 -0.001300
  CHANNELS 3 Yrotation Xrotation Zrotation
  JOINT LeftKnee
  {
   OFFSET 0.000000 -40.869800 0.001200
   CHANNELS 3 Yrotation Xrotation Zrotation
   JOINT LeftAnkle
   {
    OFFSET 0.000000 -39.717900 0.002100
    CHANNELS 3 Yrotation Xrotation Zrotation
    JOINT LeftToe
    {
     OFFSET 0.000000 -4.965400 11.033500
     CHANNELS 3 Yrotation Xrotation Zrotation
     End Site
     {
      OFFSET 0.000000 -1.423100 5.872300
     }
    }
   }
  }
 }
}
MOTION
Frames: 8
Frame Time: 0.008333
0.000000 85.388000 0.000000 0.000000 -5.767877 0.000000 0.000000 11.653817 0.000000 0.000000 -5.885947 0.000000 0.000000 -0.000000 0.000000 0.000000 -0.000000 0.000000 0.000000 12.528835 0.000000 0.000000 0.711642 0.000000 0.000000 -0.000000 0.000000 0.000000 0.000000 -90.000000 0.000000 -2.309062 0.000000 0.000000 2.309062 0.000000 0.000000 -0.000000 0.000000 0.000000 -0.000000 90.000000 0.000000 -2.309062 0.000000 0.000000 2.309062 0.000000 0.000000 8.520406 0.000000 0.000000 1.905762 0.000000 -0.000000 -4.658285 0.000000 0.000000 -0.000000 0.000000 0.000000 8.520406 0.000000 0.000000 1.905762 0.000000 -0.000000 -4.658285 0.000000 0.000000 -0.000000 0.000000
-40.455121 57.753004 11.754260 176.150626 -43.640353 -2.095924 3.363009 21.716314 3.751125 1.681562 12.495009 1.975168 2.197055 15.522840 2.545869 1.673254 12.517572 1.974836 0.879945 10.574772 1.472340 1.072030 -16.130369 2.446079 -0.299767 3.283818 0.317178 -6.862120 -11.917202 -9.466733 -74.867963 -60.632884 125.066104 9.862117 4.415814 -12.605560 -10.257429 1.125153 0.204467 14.986258 -9.656552 6.013118 107.318106 -62.601166 -138.042464 1.180924 -18.479149 6.347701 5.940484 -28.113526 -3.205347 -38.833517 74.019634 -42.783032 5.418066 -15.503392 11.685656 -0.038585 -0.038032 0.064274 -7.291040 -24.999500 5.104289 89.394222 80.949643 90.388873 2.179331 -22.225094 -19.908488 0.022306 0.036236 -0.003358
-40.458964 57.756193 11.750257 176.141077 -43.574988 -2.082171 3.354661 21.784848 3.732586 1.684420 12.463826 1.967637 2.204352 15.474732 2.543651 1.672918 12.514054 1.970331 0.874148 10.547842 1.471210 1.060422 -16.178375 2.448903 -0.296233 3.318752 0.330935 -6.785501 -11.923613 -9.479048 -74.675797 -60.659732 124.936076 9.910931 4.455260 -12.494631 -10.241183 1.167197 0.202392 14.936274 -9.536517 6.033304 106.271148 -62.472508 -137.456003 1.303616 -18.530755 6.434710 5.987584 -28.173111 -3.208788 -38.892027 74.007129 -42.847561 5.398349 -15.510982 11.696332 -0.047965 -0.035931 0.069222 -7.284391 -25.061843 5.104388 89.387528 80.961635 90.372462 2.189759 -22.223951 -19.893810 0.014485 0.033114 -0.004850
-40.460698 57.754386 11.751396 176.115723 -43.453967 -2.073414 3.362923 21.761808 3.727761 1.685725 12.459430 1.961070 2.192252 15.542220 2.528636 1.696200 12.400579 1.971570 0.868112 10.521039 1.469738 1.018874 -16.258539 2.450222 -0.284343 3.356546 0.341522 -6.715263 -11.924648 -9.487754 -74.507801 -60.695542 124.814118 9.965932 4.509367 -12.371217 -10.218081 1.207123 0.195545 14.871368 -9.426137 6.048318 105.247997 -62.342034 -136.881560 1.397980 -18.568958 6.520014 6.063776 -28.295703 -3.187505 -39.052961 73.983442 -42.998482 5.355574 -15.517103 11.714417 -0.013245 -0.037802 0.059130 -7.264444 -25.175423 5.117070 89.340369 80.960787 90.336303 2.202712 -22.235738 -19.891076 0.004235 0.045272 -0.003974
-40.464056 57.753381 11.750883 176.099280 -43.333433 -2.060124 3.364388 21.733858 3.715253 1.687171 12.453798 1.955382 2.190644 15.557174 2.518455 1.696351 12.382635 1.962496 0.855102 10.472325 1.466144 0.960974 -16.387369 2.435133 -0.258681 3.338551 0.355028 -6.644545 -11.900641 -9.495044 -74.370762 -60.743496 124.706128 10.030379 4.572698 -12.234547 -10.184397 1.206839 0.195572 14.792507 -9.323580 6.060285 104.283789 -62.220742 -136.336162 1.467805 -18.588388 6.607003 6.106483 -28.417234 -3.190280 -39.131522 73.978290 -43.084131 5.334021 -15.526071 11.736483 0.004600 -0.039910 0.049771 -7.254703 -25.292904 5.126851 89.328048 80.962954 90.327078 2.201810 -22.241879 -19.885479 0.004132 0.047853 -0.002596
-40.465608 57.758944 11.742722 176.092375 -43.268438 -2.059336 3.368030 21.734850 3.716302 1.689239 12.467245 1.951590 2.192175 15.548908 2.512660 1.689469 12.385222 1.955767 0.842152 10.428117 1.458453 0.935977 -16.475387 2.412794 -0.233268 3.326356 0.360363 -6.570723 -11.868537 -9.503112 -74.272303 -60.804646 124.620477 10.105794 4.646258 -12.088602 -10.152624 1.205192 0.181427 14.703195 -9.224666 6.070521 103.402790 -62.120367 -135.839650 1.525824 -18.596645 6.697617 6.135106 -28.481132 -3.180458 -39.220123 73.971312 -43.173065 5.330644 -15.533851 11.734059 0.006000 -0.045259 0.061710 -7.248949 -25.350259 5.135076 89.303828 80.962867 90.307364 2.199653 -22.241580 -19.881135 0.002978 0.042096 -0.003031
-40.468641 57.758849 11.739365 176.090644 -43.157241 -2.052495 3.361343 21.645680 3.704115 1.695045 12.519071 1.950021 2.189849 15.509122 2.509893 1.692826 12.457206 1.945812 0.826383 10.347192 1.453789 0.921257 -16.539554 2.391237 -0.224773 3.250751 0.370797 -6.482028 -11.803784 -9.522537 -74.221368 -60.875406 124.564330 10.191395 4.732631 -11.943631 -10.131957 1.163507 0.172695 14.604820 -9.128718 6.079064 102.616215 -62.045880 -135.409399 1.582692 -18.606017 6.796839 6.160592 -28.591599 -3.187067 -39.313477 73.968808 -43.271996 5.319346 -15.554032 11.733529 0.013102 -0.040352 0.074958 -7.245081 -25.458348 5.138807 89.298550 80.963572 90.307527 2.197974 -22.249456 -19.877774 0.004735 0.044419 -0.001858
-40.471787 57.760730 11.732661 176.096443 -43.069034 -2.045530 3.355238 21.638700 3.690402 1.704913 12.507632 1.947347 2.181740 15.471924 2.507565 1.700621 12.480853 1.938107 0.804443 10.338312 1.420112 0.906805 -16.624255 2.391944 -0.204685 3.264555 0.376827 -6.406638 -11.780070 -9.542774 -74.218172 -60.952207 124.539813 10.288549 4.829856 -11.806322 -10.127778 1.138631 0.172773 14.511832 -9.008055 6.071314 101.923579 -61.991932 -135.053345 1.638034 -18.619842 6.903177 6.176157 -28.678029 -3.197249 -39.407313 73.970501 -43.377820 5.303808 -15.569617 11.749431 0.007620 -0.046797 0.065607 -7.239904 -25.545209 5.133052 89.311985 80.968866 90.326854 2.202106 -22.252534 -19.875660 0.002849 0.040774 0.000834
